<svg width="800" height="800" viewBox="0 0 800 800" xmlns="http://www.w3.org/2000/svg">
  
  <defs>
    <mask id="hub-mask">
      <rect width="800" height="800" fill="white"/>
      <circle cx="400" cy="400" r="50" fill="black"/>
    </mask>
    <mask id="circle-mask">
      <rect width="800" height="800" fill="white"/>
      <circle cx="400" cy="400" r="30" fill="black"/>
    </mask>
  </defs>

  <rect width="800" height="800" rx="160" fill="#5E5CE6"/>
  
  <g stroke="white" stroke-width="30" mask="url(#hub-mask)">
    <line x1="400" y1="400" x2="400" y2="210" />
    <line x1="400" y1="400" x2="581" y2="341" />
    <line x1="400" y1="400" x2="512" y2="554" />
    <line x1="400" y1="400" x2="288" y2="554" />
    <line x1="400" y1="400" x2="219" y2="341" />
  </g>

  <g fill="white">
    <circle cx="400" cy="210" r="60" />
    <circle cx="581" cy="341" r="60" />
    <circle cx="512" cy="554" r="60" />
    <circle cx="288" cy="554" r="60" />
    <circle cx="219" cy="341" r="60" />
  </g>

  <g fill="#5E5CE6">
    <circle cx="400" cy="210" r="20" />
    <circle cx="581" cy="341" r="20" />
    <circle cx="512" cy="554" r="20" />
    <circle cx="288" cy="554" r="20" />
    <circle cx="219" cy="341" r="20" />
  </g>

  <circle cx="400" cy="400" r="80" fill="white" mask="url(#circle-mask)" />

</svg>